<?xml version="1.0" encoding="UTF-8" standalone="no"?>
<!-- Created with Inkscape (http://www.inkscape.org/) -->

<svg
   width="210mm"
   height="297mm"
   viewBox="0 0 210 297"
   version="1.1"
   id="svg5"
   inkscape:version="1.1 (c4e8f9e, 2021-05-24)"
   sodipodi:docname="firstIconDraft.svg"
   xmlns:inkscape="http://www.inkscape.org/namespaces/inkscape"
   xmlns:sodipodi="http://sodipodi.sourceforge.net/DTD/sodipodi-0.dtd"
   xmlns="http://www.w3.org/2000/svg"
   xmlns:svg="http://www.w3.org/2000/svg">
  <sodipodi:namedview
     id="namedview7"
     pagecolor="#505050"
     bordercolor="#ffffff"
     borderopacity="1"
     inkscape:pageshadow="0"
     inkscape:pageopacity="0"
     inkscape:pagecheckerboard="1"
     inkscape:document-units="mm"
     showgrid="false"
     inkscape:zoom="1.239828"
     inkscape:cx="269.3922"
     inkscape:cy="516.60391"
     inkscape:window-width="1920"
     inkscape:window-height="1016"
     inkscape:window-x="0"
     inkscape:window-y="27"
     inkscape:window-maximized="1"
     inkscape:current-layer="layer1" />
  <defs
     id="defs2" />
  <g
     inkscape:label="Layer 1"
     inkscape:groupmode="layer"
     id="layer1">
    <g
       id="g2179">
      <path
         style="fill:none;stroke:#000000;stroke-width:0.264583px;stroke-linecap:butt;stroke-linejoin:miter;stroke-opacity:1"
         d="m 35.047433,133.47282 c 34.356288,84.6654 93.596227,64.68513 93.596227,64.68513"
         id="path245" />
      <path
         style="fill:none;stroke:#000000;stroke-width:0.264583px;stroke-linecap:butt;stroke-linejoin:miter;stroke-opacity:1"
         d="m 35.047433,133.47282 c 34.356288,84.6654 93.596227,64.68513 93.596227,64.68513"
         id="path261" />
      <path
         style="fill:none;stroke:#000000;stroke-width:0.264583px;stroke-linecap:butt;stroke-linejoin:miter;stroke-opacity:1"
         d="M 128.64366,198.15795 C 188.98429,163.19021 120.15349,82.485507 120.15349,82.485507 L 35.047433,133.47282"
         id="path279" />
    </g>
    <path
       style="fill:#ff7f2a;stroke-width:1.19438"
       d="M 401.11813,754.20303 C 343.98723,747.53612 290.5929,721.47236 244.30439,677.65643 224.92698,659.31409 198.69734,626.7039 182.95182,601.37939 166.1301,574.32398 147.71523,538.57927 137.02214,512.22628 l -2.9739,-7.32915 159.95138,-95.8553 c 137.32131,-82.2936 160.15648,-95.5993 161.4011,-94.04591 47.47522,59.25307 87.3259,129.09419 106.67686,186.95872 25.77406,77.07132 21.20525,142.2033 -13.34116,190.18873 -13.73094,19.07244 -29.13474,33.58059 -51.22864,48.24993 -12.86376,8.54096 -18.08638,10.22819 -41.25451,13.32778 -13.30112,1.77951 -41.8755,2.02929 -55.13514,0.48195 z"
       id="path2294"
       transform="scale(0.26458333)" />
    <path
       style="fill:none;stroke:#000000;stroke-width:0.264583px;stroke-linecap:butt;stroke-linejoin:miter;stroke-opacity:1"
       d="m 69.526985,184.17013 2.179339,-18.33191 22.896814,10.57348 -2.585125,-20.6184 28.337327,19.71018 -8.88649,-27.68673 18.16216,14.22318 -0.97325,-26.22737 12.13927,10.87268 -2.18138,-16.23005 12.91858,11.59178"
       id="path2559" />
    <path
       style="fill:#aa0000;stroke-width:0.342928"
       d="m 409.62797,754.72164 c -4.00905,-0.20564 -12.41874,-1.14472 -17.83228,-1.99127 -44.04981,-6.88835 -85.50847,-25.2245 -123.19702,-54.48702 -2.6877,-2.08681 -4.88673,-3.91651 -4.88673,-4.06599 0,-0.44613 7.5229,-63.76846 7.73573,-65.11386 l 0.19599,-1.23889 43.26777,19.9904 c 23.79727,10.99473 43.3033,19.95487 43.34674,19.91143 0.0434,-0.0434 -2.08024,-17.34306 -4.71927,-38.4436 -2.63904,-21.10055 -4.75572,-38.46827 -4.70375,-38.59494 0.052,-0.12666 24.14387,16.50058 53.53756,36.94943 29.39369,20.44886 53.49042,37.12982 53.54831,37.06882 0.0579,-0.061 -7.35789,-23.33574 -16.47949,-51.72164 -9.12159,-28.3859 -16.55201,-51.71928 -16.51203,-51.85196 0.04,-0.13267 15.2489,11.64527 33.79762,26.17322 18.54872,14.52794 33.77293,26.36465 33.83157,26.30379 0.0586,-0.0609 -0.72077,-22.24908 -1.73202,-49.30715 -1.01126,-27.05808 -1.80675,-49.22371 -1.76777,-49.25696 0.039,-0.0333 10.3071,9.11695 22.81803,20.33379 12.51093,11.21684 22.82477,20.31664 22.91963,20.22177 0.0949,-0.0949 -1.62641,-13.53459 -3.82506,-29.86605 -2.19865,-16.33147 -3.94784,-29.89833 -3.8871,-30.14858 0.0875,-0.36046 41.74302,36.62131 45.6683,40.54432 0.80228,0.8018 1.12818,1.67518 1.82081,4.87956 2.26794,10.49247 4.47043,26.19293 5.26196,37.50994 0.44174,6.31587 0.43495,23.85222 -0.0115,29.68049 -2.65919,34.71556 -13.45139,63.58551 -33.38809,89.31567 -12.54867,16.19523 -27.06734,29.40678 -46.52275,42.33432 -12.28079,8.16022 -18.5958,10.43442 -35.64565,12.83694 -8.81015,1.24145 -11.8043,1.54406 -19.03253,1.9236 -5.83461,0.30636 -28.34506,0.38032 -33.60698,0.11042 z"
       id="path2674"
       transform="scale(0.26458333)" />
    <path
       style="fill:none;stroke:#000000;stroke-width:0.264583px;stroke-linecap:butt;stroke-linejoin:miter;stroke-opacity:1"
       d="m 39.160561,142.55634 c 5.357497,1.01118 21.539488,7.11646 21.539488,7.11646 l -4.978159,-20.49077 23.897452,20.78056 -4.609201,-29.17729 15.206832,12.41593 0.0659,-24.17974 25.626987,26.44789 -5.11165,-24.65549 7.83912,2.79656 -0.96141,-11.44243 15.57457,9.97745 -10.35438,-25.845457"
       id="path2746" />
    <path
       style="fill:#ff6600;stroke-width:0.550059"
       d="m 256.03001,687.85467 c -8.48181,-7.21005 -25.66218,-24.62029 -33.93029,-34.38429 -27.14046,-32.05078 -43.53367,-57.05493 -65.72474,-100.2483 -3.76917,-7.33642 -6.75027,-13.33894 -6.62468,-13.33894 1.09373,0 16.88642,4.70022 27.09375,8.06364 12.66592,4.17355 38.35943,13.22709 48.07205,16.93899 2.84209,1.08617 5.24538,1.89691 5.34064,1.80164 0.0953,-0.0953 -3.90758,-16.97439 -8.89521,-37.50918 -4.98764,-20.53479 -8.99985,-37.5152 -8.91603,-37.73425 0.0838,-0.21904 20.18196,17.02531 44.66254,38.3208 24.48058,21.29549 44.5784,38.65083 44.66181,38.56741 0.0834,-0.0834 -3.67789,-24.40037 -8.35846,-54.03769 -4.68056,-29.63733 -8.44162,-54.21396 -8.35789,-54.61474 0.0854,-0.40893 12.46256,9.32525 28.20524,22.18242 l 28.05302,22.91111 0.1529,-12.83585 c 0.0841,-7.05971 0.33163,-27.38427 0.55006,-45.16568 l 0.39716,-32.32984 48.13018,49.68522 c 26.4716,27.32687 48.21835,49.46977 48.32611,49.20643 0.10777,-0.26334 -4.08356,-21.12629 -9.31404,-46.36213 -5.2305,-25.23583 -9.35289,-46.04042 -9.16089,-46.23243 0.192,-0.19201 6.70962,1.91256 14.48359,4.67681 7.77397,2.76424 14.19295,4.95943 14.2644,4.8782 0.0714,-0.0812 -0.6781,-9.55371 -1.66565,-21.04995 -0.98755,-11.49623 -1.71346,-20.99341 -1.61314,-21.10485 0.10033,-0.11142 13.35921,8.23794 29.46418,18.55415 16.10497,10.31621 29.37021,18.6683 29.47831,18.5602 0.1081,-0.1081 -8.12364,-20.91949 -18.29275,-46.24754 -10.1691,-25.32805 -18.37419,-46.16609 -18.23352,-46.30677 0.36891,-0.36891 12.1611,15.85754 20.84954,28.68966 33.33549,49.23384 58.3473,97.81097 72.78733,141.36522 4.31723,13.02168 8.66001,28.46335 8.38826,29.8262 -0.1073,0.53811 -8.55946,-6.68938 -23.54441,-20.13297 -12.85735,-11.53486 -23.45377,-20.74216 -23.5476,-20.46067 -0.0938,0.28148 1.58591,13.57149 3.73276,29.53334 2.14685,15.96186 3.83232,29.31846 3.74548,29.68133 -0.0868,0.36286 -10.18271,-8.32601 -22.43528,-19.30861 l -22.2774,-19.96837 -0.16888,2.77864 c -0.0929,1.52826 0.60373,23.42729 1.54802,48.66453 0.9443,25.23725 1.63118,46.14308 1.52641,46.4574 -0.10478,0.31433 -15.52923,-11.43931 -34.27655,-26.11921 -18.74733,-14.67989 -34.1573,-26.495 -34.24437,-26.25578 -0.0871,0.23921 7.26269,23.54411 16.33282,51.78866 9.07013,28.24455 16.41863,51.42623 16.33001,51.51486 -0.0886,0.0886 -23.85777,-16.32407 -52.82032,-36.47264 -28.96254,-20.14858 -52.79441,-36.49853 -52.95971,-36.33324 -0.16529,0.16529 1.85446,17.53514 4.48833,38.59964 2.63388,21.06451 4.70744,38.38054 4.60792,38.48006 -0.0995,0.0995 -19.4605,-8.71629 -43.02438,-19.59069 -23.56389,-10.87441 -42.88899,-19.7036 -42.94467,-19.62043 -0.0557,0.0832 -1.77735,14.50777 -3.82593,32.05466 -2.04859,17.54689 -3.89643,32.62448 -4.10632,33.50575 l -0.38162,1.6023 z"
       id="path2822"
       transform="scale(0.26458333)" />
  </g>
</svg>
